<?xml version="1.0" encoding="utf-8"?>
<!-- Generator: Adobe Illustrator 16.0.4, SVG Export Plug-In . SVG Version: 6.00 Build 0)  -->
<!DOCTYPE svg PUBLIC "-//W3C//DTD SVG 1.1//EN" "http://www.w3.org/Graphics/SVG/1.1/DTD/svg11.dtd">
<svg version="1.1" xmlns="http://www.w3.org/2000/svg" xmlns:xlink="http://www.w3.org/1999/xlink" x="0px" y="0px" width="32px"
	 height="22px" viewBox="0 0 32 22" enable-background="new 0 0 32 22" xml:space="preserve">
<g id="Layer_1" display="none">
	<g display="inline">
		<path id="path3483" fill="#010101" d="M25,11l-3.641-4H19.57L14,15h7.359L25,11z"/>
		<path id="path3485" fill="#010101" d="M7,7v8h2.05L14,7H7z"/>
		<path id="path3487" fill="#010101" d="M9.67,19.55L8.08,18.23L18.84,2.45l1.59,1.32L9.67,19.55z"/>
	</g>
</g>
<g id="Layer_2" display="none">
	<path id="path3481" display="inline" fill="#010101" d="M25,11l-3.5-4H7v8h14.5"/>
</g>
<g id="Layer_3" display="none">
	<g display="inline">
		<path id="path3597" fill="#010101" d="M22.5,11l-8-5v10"/>
		<path id="path3599" fill="#010101" d="M12.5,16h-3V6h3V16z"/>
	</g>
</g>
<g id="Layer_4" display="none">
	<g display="inline">
		<path id="path3601" fill="#010101" d="M14.5,15h-3V7h3V15z"/>
		<path id="path3603" fill="#010101" d="M20.5,15h-3V7h3V15z"/>
	</g>
</g>
<g id="Layer_5">
	<g>
		<path id="path3605" fill="#010101" d="M14,15.5c0,1.1,0.9,2,2,2c1.1,0,2-0.9,2-2s-0.9-2-2-2C14.9,13.5,14,14.4,14,15.5"/>
		<path id="path3607" fill="#010101" d="M14.5,4.5v4h-3l4.5,4l4.5-4h-3v-4H14.5z"/>
	</g>
</g>
<g id="Layer_6" display="none">
	<g display="inline">
		<path id="path3609" fill="#010101" d="M14.5,17c0,1.1,0.9,2,2,2c1.1,0,2-0.9,2-2s-0.9-2-2-2C15.4,15,14.5,15.9,14.5,17"/>
		<path id="path3611" fill="#010101" d="M16.5,6L12,10h3v4h3v-4h3L16.5,6z"/>
	</g>
</g>
<g id="Layer_7" display="none">
	<g display="inline">
		<path id="path3613" fill="#010101" d="M14,14.5c0,1.1,0.9,2,2,2c1.1,0,2-0.9,2-2s-0.9-2-2-2C14.9,12.5,14,13.4,14,14.5"/>
		<path id="path3615" fill="none" stroke="#010101" stroke-width="2.5" d="M9.25,15.03c2.55-8.431,11.4-8.73,13.939,0"/>
		<path id="path3617" fill="#010101" d="M23.68,17l-4.539-2.76l6.68-2.1"/>
	</g>
</g>
</svg>
