<?xml version="1.0" encoding="utf-8"?>
<!-- Generator: Adobe Illustrator 16.0.4, SVG Export Plug-In . SVG Version: 6.00 Build 0)  -->
<!DOCTYPE svg PUBLIC "-//W3C//DTD SVG 1.1//EN" "http://www.w3.org/Graphics/SVG/1.1/DTD/svg11.dtd">
<svg version="1.1" id="Layer_1" xmlns="http://www.w3.org/2000/svg" xmlns:xlink="http://www.w3.org/1999/xlink" x="0px" y="0px"
	 width="32px" height="22px" viewBox="0 0 32 22" enable-background="new 0 0 32 22" xml:space="preserve">
<g id="Layer_1_1_" display="none">
	<g display="inline">
		<path id="path3483" fill="#010101" d="M25,11l-3.641-4H19.57L14,15h7.359L25,11z"/>
		<path id="path3485" fill="#010101" d="M7,7v8h2.05L14,7H7z"/>
		<path id="path3487" fill="#010101" d="M9.67,19.55L8.08,18.23L18.84,2.45l1.59,1.32L9.67,19.55z"/>
	</g>
</g>
<g id="Layer_2" display="none">
	<path id="path3481" display="inline" fill="#010101" d="M25,11l-3.5-4H7v8h14.5"/>
</g>
<g id="Layer_3" display="none">
	<g display="inline">
		<path id="path3597" fill="#010101" d="M22.5,11l-8-5v10"/>
		<path id="path3599" fill="#010101" d="M12.5,16h-3V6h3V16z"/>
	</g>
</g>
<g id="Layer_4" display="none">
	<g display="inline">
		<path id="path3601" fill="#010101" d="M14.5,15h-3V7h3V15z"/>
		<path id="path3603" fill="#010101" d="M20.5,15h-3V7h3V15z"/>
	</g>
</g>
<g id="Layer_5" display="none">
	<g display="inline">
		<path id="path3605" fill="#010101" d="M14,15.5c0,1.1,0.9,2,2,2c1.1,0,2-0.9,2-2s-0.9-2-2-2C14.9,13.5,14,14.4,14,15.5"/>
		<path id="path3607" fill="#010101" d="M14.5,4.5v4h-3l4.5,4l4.5-4h-3v-4H14.5z"/>
	</g>
</g>
<g id="Layer_6" display="none">
	<g display="inline">
		<path id="path3609" fill="#010101" d="M14,15.5c0,1.1,0.9,2,2,2c1.1,0,2-0.9,2-2s-0.9-2-2-2C14.9,13.5,14,14.4,14,15.5"/>
		<path id="path3611" fill="#010101" d="M16,4.5l-4.5,4h3v4h3v-4h3L16,4.5z"/>
	</g>
</g>
<g id="Layer_7">
	<g>
		<g id="path3613">
			<path fill="#010101" d="M12.465,12.703c0,1.1,0.9,2,2,2c1.1,0,2-0.9,2-2s-0.9-2-2-2C13.365,10.703,12.465,11.604,12.465,12.703"
				/>
		</g>
		<g id="path3615">
			<path fill="#010101" d="M8.911,13.595L6.519,12.87c1.352-4.469,4.603-7.314,8.282-7.323c3.658,0.02,6.744,2.831,8.054,7.337
				l-2.4,0.697c-0.989-3.4-3.161-5.521-5.667-5.534c-0.008,0-0.017,0-0.025,0C12.187,8.047,9.947,10.169,8.911,13.595z"/>
		</g>
		<g id="path3617">
			<path fill="#010101" d="M22.145,15.203l-4.539-2.76l6.681-2.101"/>
		</g>
	</g>
</g>
</svg>
